#!OML:ASF E:\emotionWalksFemale\Project 1\Capture day 1\Session 1\Female1.ASF
:FULLY-SPECIFIED
:DEGREES
2259
root 9.83578 15.3019 -38.4475 -354.141 -3.48594 0.193845
lowerback 8.41052 0.528743 -0.990863
upperback -4.68548 0.586124 0.00931715
thorax -9.73464 0.348594 0.469431
lowerneck -9.45266 -0.813154 -3.02084
upperneck 12.3982 -0.814552 1.20868
head 5.30462 -0.456368 0.811648
rclavicle -5.32319e-015 -3.46631e-015
rhumerus -49.9799 14.7077 -98.8058
rradius 41.2346
rwrist -9.51419
rhand 15.7824 -59.3878
rfingers 7.12502
rthumb -139.412 455.566
lclavicle -5.32319e-015 -3.46631e-015
lhumerus -33.6649 -1.83499 80.7272
lradius 42.1994
lwrist -4.30078
lhand -12.2792 -34.8069
lfingers 7.12502
lthumb 13.788 -5.28382
rfemur -12.1624 9.24071 26.5831
rtibia 31.1154
rfoot -22.9666 -25.9091
rtoes 6.32477
lfemur -15.5763 -16.6652 -21.5238
ltibia 33.3416
lfoot -25.7379 16.499
ltoes -20.1397
2260
root 9.82282 15.3013 -38.4538 -354.237 -3.34841 0.306978
lowerback 8.40019 0.45767 -1.19168
upperback -4.61357 0.463195 -0.0188676
thorax -9.64912 0.300455 0.573258
lowerneck -9.50677 -0.81043 -2.73541
upperneck 12.351 -0.833101 1.07086
head 5.29757 -0.461226 0.720407
rclavicle 8.48101e-015 -1.0635e-014
rhumerus -49.9426 14.5238 -98.7529
rradius 41.2896
rwrist -10.102
rhand 14.8146 -58.3948
rfingers 7.12502
rthumb -140.323 456.283
lclavicle 8.48101e-015 -1.0635e-014
lhumerus -33.6149 -2.25912 81.0039
lradius 42.4281
lwrist -4.06936
lhand -12.3512 -35.2699
lfingers 7.12502
lthumb 13.7186 -5.74215
rfemur -12.0561 9.24475 26.5362
rtibia 31.0987
rfoot -23.0308 -25.9705
rtoes 6.40897
lfemur -15.5582 -16.5392 -21.5724
ltibia 33.384
lfoot -25.6471 16.0403
ltoes -19.5612
2261
root 9.80877 15.3007 -38.4548 -354.362 -3.27405 0.393202
lowerback 8.77973 0.396001 -1.43073
upperback -4.76723 0.34412 -0.00177132
thorax -10.0443 0.262114 0.743577
lowerneck -9.52241 -0.754855 -2.53563
upperneck 12.5248 -0.77775 0.994736
head 5.35205 -0.431022 0.668121
rclavicle -5.69419e-015 -1.43373e-014
rhumerus -50.162 14.2061 -98.5911
rradius 41.4205
rwrist -10.0718
rhand 15.4523 -59.074
rfingers 7.12502
rthumb -139.723 455.784
lclavicle -5.69419e-015 -1.43373e-014
lhumerus -33.8801 -2.66675 81.3165
lradius 42.5935
lwrist -3.84025
lhand -12.039 -35.667
lfingers 7.12502
lthumb 14.0195 -6.15974
rfemur -11.879 9.24785 26.5393
rtibia 31.0763
rfoot -23.1777 -25.9955
rtoes 6.55855
lfemur -15.4677 -16.3763 -21.6043
ltibia 33.4424
lfoot -25.7199 15.4808
ltoes -18.0381
2262
root 9.79694 15.299 -38.4562 -354.411 -3.26389 0.358061
lowerback 8.6004 0.301097 -1.42671
upperback -4.67056 0.221666 0.00902017
thorax -9.82768 0.201233 0.774783
lowerneck -9.43895 -0.724017 -2.31596
upperneck 12.315 -0.750943 0.85038
head 5.27065 -0.416856 0.589209
rclavicle 1.55955e-014 1.03617e-014
rhumerus -50.0388 14.133 -98.5843
rradius 41.4053
rwrist -10.9634
rhand 14.1485 -58.1305
rfingers 7.12502
rthumb -140.95 456.364
lclavicle 1.55955e-014 1.03617e-014
lhumerus -33.6738 -3.10277 81.6797
lradius 42.6441
lwrist -3.91396
lhand -12.1947 -34.9028
lfingers 7.12502
lthumb 13.8693 -5.38522
rfemur -11.7893 9.24704 26.6558
rtibia 31.0554
rfoot -23.201 -26.0233
rtoes 6.40065
lfemur -15.4468 -16.1922 -21.5158
ltibia 33.5068
lfoot -25.7114 15.3097
ltoes -18.1916
2263
root 9.78523 15.295 -38.4564 -354.466 -3.26817 0.349201
lowerback 8.41954 0.199954 -1.41098
upperback -4.59448 0.0905715 0.00190757
thorax -9.63299 0.13479 0.780777
lowerneck -9.21907 -0.735347 -2.12254
upperneck 12.0741 -0.77908 0.696602
head 5.15769 -0.431596 0.508211
rclavicle -3.96735e-015 1.00883e-014
rhumerus -49.9683 14.0007 -98.5254
rradius 41.4677
rwrist -11.5404
rhand 13.6753 -57.8114
rfingers 7.12502
rthumb -141.397 456.556
lclavicle -3.96735e-015 1.00883e-014
lhumerus -33.5235 -3.38962 81.9319
lradius 42.4784
lwrist -3.94381
lhand -11.8738 -34.9554
lfingers 7.12502
lthumb 14.1786 -5.45924
rfemur -11.7147 9.28136 26.7384
rtibia 31.0513
rfoot -23.0975 -26.1199
rtoes 6.41193
lfemur -15.4129 -16.0799 -21.4828
ltibia 33.5839
lfoot -25.6076 15.4926
ltoes -19.9465
2264
root 9.77361 15.2904 -38.4569 -354.51 -3.28393 0.37314
lowerback 8.42734 0.113575 -1.52215
upperback -4.61594 -0.0348615 0.0591656
thorax -9.65844 0.083738 0.925297
lowerneck -9.00858 -0.701568 -2.30355
upperneck 11.8931 -0.739461 0.902569
head 5.06683 -0.406319 0.605185
rclavicle -9.09692e-015 -4.47266e-016
rhumerus -50.0118 13.9755 -98.3893
rradius 41.5029
rwrist -12.0422
rhand 13.8161 -58.0229
rfingers 7.12502
rthumb -141.264 456.382
lclavicle -9.09692e-015 -4.47266e-016
lhumerus -33.6307 -3.72496 82.3384
lradius 42.4647
lwrist -3.93806
lhand -11.8009 -35.2754
lfingers 7.12502
lthumb 14.2489 -5.7842
rfemur -11.6655 9.30866 26.767
rtibia 31.0612
rfoot -23.0376 -26.133
rtoes 6.48315
lfemur -15.415 -15.9824 -21.4873
ltibia 33.6533
lfoot -25.4245 15.7959
ltoes -22.0273
2265
root 9.76412 15.2881 -38.4633 -354.449 -3.82518 0.32389
lowerback 8.57208 0.210782 -1.62084
upperback -4.76005 0.0841913 0.113302
thorax -9.90751 0.152758 1.01883
lowerneck -9.07102 -0.548425 -2.39885
upperneck 11.9441 -0.544688 1.10852
head 5.0906 -0.301697 0.698377
rclavicle 1.95279e-014 -1.12935e-014
rhumerus -50.138 13.8462 -98.2451
rradius 41.5841
rwrist -12.6151
rhand 14.0055 -58.4937
rfingers 7.12502
rthumb -141.085 455.962
lclavicle 1.95279e-014 -1.12935e-014
lhumerus -33.857 -3.90982 82.7313
lradius 42.4709
lwrist -4.04414
lhand -11.5961 -35.3507
lfingers 7.12502
lthumb 14.4462 -5.87347
rfemur -11.8012 9.45907 26.7532
rtibia 31.1002
rfoot -22.9542 -25.7124
rtoes 6.31352
lfemur -15.4637 -15.6206 -21.4726
ltibia 33.7066
lfoot -25.2961 16.3262
ltoes -24.0016
2266
root 9.75666 15.2847 -38.4665 -354.457 -3.82856 0.329109
lowerback 8.48692 0.174572 -1.65288
upperback -4.73324 0.0351374 0.134927
thorax -9.82592 0.131153 1.06823
lowerneck -9.0648 -0.496532 -2.398
upperneck 11.8449 -0.492073 1.24194
head 5.05804 -0.266656 0.74329
rclavicle 4.68978e-015 1.50082e-014
rhumerus -50.0351 13.5313 -97.9618
rradius 41.8317
rwrist -13.2666
rhand 14.0548 -59.005
rfingers 7.12502
rthumb -141.039 455.464
lclavicle 4.68978e-015 1.50082e-014
lhumerus -33.783 -4.14151 83.1952
lradius 42.3101
lwrist -4.50137
lhand -11.6884 -35.0194
lfingers 7.12502
lthumb 14.3573 -5.5359
rfemur -11.8174 9.38743 26.7574
rtibia 31.1439
rfoot -23.1021 -25.5673
rtoes 6.27727
lfemur -15.4883 -15.4367 -21.4769
ltibia 33.7465
lfoot -24.9691 16.6339
ltoes -26.4173
2267
root 9.74823 15.2783 -38.4727 -354.518 -3.84057 0.322703
lowerback 8.52253 0.157597 -1.7291
upperback -4.71856 0.00584117 0.177047
thorax -9.83037 0.123633 1.16113
lowerneck -8.97444 -0.478854 -2.40822
upperneck 11.71 -0.482263 1.34849
head 5.00098 -0.255068 0.77862
rclavicle -9.07537e-018 -2.04375e-014
rhumerus -49.8741 12.9347 -97.3191
rradius 42.131
rwrist -14.647
rhand 14.6227 -57.9807
rfingers 7.12502
rthumb -140.504 456.643
lclavicle -9.07537e-018 -2.04375e-014
lhumerus -33.8046 -4.57233 83.7582
lradius 42.1687
lwrist -5.22624
lhand -12.2347 -34.8354
lfingers 7.12502
lthumb 13.8309 -5.31524
rfemur -11.8075 9.31728 26.7914
rtibia 31.1919
rfoot -23.1448 -25.4916
rtoes 5.96929
lfemur -15.4966 -15.2676 -21.4508
ltibia 33.8033
lfoot -24.7981 16.725
ltoes -27.2487
2268
root 9.73292 15.2739 -38.4761 -354.609 -3.52722 0.371352
lowerback 8.31568 -0.000809657 -1.87205
upperback -4.54722 -0.21553 0.219976
thorax -9.51127 0.0230016 1.32309
lowerneck -9.08074 -0.44274 -2.43654
upperneck 11.6053 -0.436092 1.42456
head 4.98577 -0.227974 0.809798
rclavicle 8.33185e-015 -1.544e-014
rhumerus -49.7583 12.9256 -97.2231
rradius 42.2524
rwrist -15.0301
rhand 14.391 -58.0552
rfingers 7.12502
rthumb -140.722 456.505
lclavicle 8.33185e-015 -1.544e-014
lhumerus -33.7116 -4.83251 84.16
lradius 42.1191
lwrist -5.7124
lhand -12.0221 -35.0267
lfingers 7.12502
lthumb 14.0357 -5.52064
rfemur -11.6711 9.16126 26.8713
rtibia 31.1955
rfoot -23.2864 -25.666
rtoes 5.91377
lfemur -15.4889 -15.2127 -21.4153
ltibia 33.8747
lfoot -24.8765 16.3905
ltoes -26.8888
2269
root 9.7231 15.275 -38.4838 -354.562 -3.63393 0.378299
lowerback 8.26851 -0.00463693 -1.92809
upperback -4.53431 -0.226394 0.221501
thorax -9.46878 0.0207827 1.35772
lowerneck -9.12303 -0.459038 -2.28314
upperneck 11.5405 -0.463066 1.30348
head 4.97279 -0.242047 0.74512
rclavicle -1.33365e-014 -6.26793e-015
rhumerus -49.9629 13.0983 -97.5287
rradius 42.0956
rwrist -14.1702
rhand 13.6217 -58.6741
rfingers 7.12502
rthumb -141.447 455.679
lclavicle -1.33365e-014 -6.26793e-015
lhumerus -33.7719 -4.98479 84.4582
lradius 42.1216
lwrist -6.01982
lhand -11.2121 -35.0121
lfingers 7.12502
lthumb 14.8161 -5.5618
rfemur -11.7454 9.03014 26.866
rtibia 31.1444
rfoot -23.1434 -25.5476
rtoes 5.06685
lfemur -15.6009 -15.0475 -21.3886
ltibia 33.9832
lfoot -25.0903 16.3692
ltoes -26.7245
